<?xml version="1.0" encoding="UTF-8" standalone="no"?>
<svg
   viewBox="0 0 24 24"
   version="1.1"
   id="svg1"
   sodipodi:docname="skill-map.svg"
   inkscape:version="1.4.2 (f4327f4, 2025-05-13)"
   inkscape:export-filename="skill-map-white.png"
   inkscape:export-xdpi="96"
   inkscape:export-ydpi="96"
   xmlns:inkscape="http://www.inkscape.org/namespaces/inkscape"
   xmlns:sodipodi="http://sodipodi.sourceforge.net/DTD/sodipodi-0.dtd"
   xmlns="http://www.w3.org/2000/svg"
   xmlns:svg="http://www.w3.org/2000/svg">
  <defs
     id="defs1" />
  <sodipodi:namedview
     id="namedview1"
     pagecolor="#ffffff"
     bordercolor="#000000"
     borderopacity="0.25"
     inkscape:showpageshadow="2"
     inkscape:pageopacity="0.0"
     inkscape:pagecheckerboard="0"
     inkscape:deskcolor="#d1d1d1"
     inkscape:zoom="17.191534"
     inkscape:cx="16.374339"
     inkscape:cy="1.8032132"
     inkscape:window-width="1718"
     inkscape:window-height="1360"
     inkscape:window-x="1713"
     inkscape:window-y="0"
     inkscape:window-maximized="0"
     inkscape:current-layer="svg1" />
  <g
     id="g1">
    <path
       d="M 20.5,3 C 20.776142,3 21,3.2238576 21,3.5 v 9.84 C 20.37,13.12 19.7,13 19,13 V 5.7 l -3,1.16 v 6.94 c -0.8,0.47 -1.5,1.11 -2,1.88 V 6.87 L 10,5.47 V 17.13 L 13.05,18.2 13,19 c 0,0.46 0.05,0.92 0.15,1.35 L 9,18.9 3.66,20.97 3.5,21 C 3.2238576,21 3,20.776142 3,20.5 V 5.38 C 3,5.15 3.15,4.97 3.36,4.9 L 9,3 15,5.1 20.34,3.03 20.5,3 M 5,6.46 V 18.31 L 8,17.15 V 5.45 Z"
       id="path1"
       sodipodi:nodetypes="cscccccccccccccccsscccccccccc"
       style="fill:#ffffff;fill-opacity:1" />
    <path
       d="m 18.274561,14.519632 -4.404054,2.467631 4.404054,2.467632 3.603315,-2.019346 v 2.841889 h 0.800737 v -3.290175 m -7.206632,1.719116 v 1.645089 l 2.80258,1.571058 2.802579,-1.571058 v -1.645089 l -2.802579,1.571059 z"
       id="path1-5"
       style="stroke-width:0.405784;fill:#ffffff;fill-opacity:1" />
  </g>
</svg>
